P2
# Created by Paint Shop Pro 6
16 16
255
189 189 182 178 174 172 169 167 164 161 156 154 149 156 159 163 183 183 
179 174 171 169 166 164 161 157 151 133 141 149 151 155 177 177 174 171 
167 163 167 190 175 131 133 143 143 142 143 147 173 173 170 168 164 147 
127 135 158 176 159 143 140 138 139 141 168 168 165 164 161 117 151 154 
173 143 161 127 135 134 133 134 165 165 163 161 160 144 104 181 201 197 
182 98 131 129 126 125 160 160 161 159 157 152 83 115 166 147 114 104 127 
125 122 116 155 155 155 155 153 78 76 62 71 88 91 90 103 119 115 106 151 
151 151 150 147 26 102 59 59 66 71 78 78 114 104 95 149 149 147 147 117 
23 118 87 49 57 64 75 77 105 94 88 149 149 148 146 97 65 186 146 45 64 
71 61 90 97 87 84 149 149 148 146 86 100 190 137 50 61 68 66 102 89 83 
83 150 150 149 148 81 122 181 148 57 68 65 94 93 83 80 82 147 147 147 147 
81 129 167 58 78 77 72 94 81 77 75 77 144 144 145 144 82 113 71 51 86 61 
111 103 85 72 72 75 144 144 145 144 66 41 44 55 94 88 76 71 91 99 93 76 

