P2
# CREATOR: The GIMP's PNM Filter Version 1.0
64 64
255
186
189
190
193
193
190
189
186
185
184
182
180
178
180
178
174
174
175
175
174
173
172
171
172
170
170
169
168
167
166
166
166
166
164
163
163
162
162
161
160
158
158
155
156
156
156
156
156
157
158
158
156
158
158
158
160
160
162
162
164
164
165
168
168
186
189
189
193
193
189
189
186
185
184
182
182
180
180
179
178
176
176
174
175
174
174
172
171
170
169
169
170
168
168
168
166
166
165
164
163
164
162
161
159
159
158
154
154
155
157
157
157
156
157
148
154
156
157
159
159
159
160
161
164
163
164
165
166
186
188
189
193
193
189
188
186
184
184
182
180
180
178
177
177
176
176
175
174
174
173
172
171
171
170
170
168
168
168
167
166
168
166
164
164
163
162
161
159
159
157
158
153
153
155
155
156
154
146
141
145
156
156
156
156
156
159
159
161
161
163
164
164
186
187
189
192
192
189
187
186
184
183
181
180
180
177
176
176
175
174
174
174
172
172
171
172
169
169
169
168
167
167
167
167
165
164
164
163
162
161
161
158
157
157
156
154
151
154
153
153
152
121
137
154
154
154
155
155
155
156
158
158
160
161
161
164
184
184
187
190
190
187
184
184
183
181
180
179
177
176
176
175
174
174
172
172
172
171
171
170
169
168
168
167
166
167
166
165
164
164
162
161
161
161
159
157
157
156
155
150
149
152
152
152
115
123
152
152
151
152
152
153
153
154
154
157
158
158
159
159
181
183
185
188
188
185
183
181
181
180
179
177
176
175
175
174
174
172
172
172
170
172
170
169
169
168
167
167
166
166
164
164
164
163
161
161
160
158
157
156
157
155
155
152
150
150
148
118
108
148
149
150
150
150
150
150
150
150
152
154
156
155
158
159
182
182
183
187
187
183
182
182
180
179
178
177
176
174
174
173
171
172
172
171
170
169
168
168
168
166
166
166
164
165
164
163
162
162
162
160
157
157
156
155
154
154
152
152
150
140
109
110
142
147
149
146
148
149
148
149
149
149
150
152
154
154
155
155
178
180
182
185
185
182
180
178
179
178
177
176
175
174
172
172
172
170
170
169
169
168
167
165
166
166
164
164
165
162
163
162
162
160
159
157
156
154
155
153
152
151
144
128
102
92
125
145
146
146
147
147
147
146
147
146
148
147
148
149
150
152
154
155
178
178
180
183
183
180
178
178
178
176
176
175
175
173
172
170
170
170
169
168
166
165
164
164
165
165
164
163
164
168
172
176
172
169
162
153
140
136
138
126
124
103
95
100
121
138
145
144
144
144
145
144
144
144
144
144
145
145
146
146
149
149
149
153
176
178
178
182
182
178
178
176
176
175
174
174
174
172
170
170
169
167
168
166
166
164
164
164
164
163
164
173
184
189
193
196
194
186
178
166
145
129
118
121
123
134
142
148
148
146
146
145
145
144
144
142
144
142
144
145
144
144
144
145
146
147
150
148
175
176
176
180
180
176
176
175
175
174
173
173
173
171
170
169
168
166
166
166
166
164
162
163
162
159
174
192
197
196
200
199
195
190
176
156
138
130
136
145
144
147
148
147
146
146
144
143
145
143
141
142
141
142
142
142
142
144
144
144
144
147
146
147
174
174
175
178
178
175
174
174
174
172
173
171
170
170
170
168
167
166
166
164
164
163
162
158
143
152
183
194
200
202
203
201
200
192
170
154
136
131
108
114
146
148
148
146
146
144
142
143
142
142
142
142
140
140
141
141
141
142
142
144
142
145
145
147
172
174
175
178
178
175
174
172
172
171
171
171
171
170
170
169
167
166
165
165
165
162
162
133
116
127
178
187
201
203
202
195
198
194
198
192
193
190
168
123
114
146
147
147
146
144
144
141
142
141
142
141
139
141
140
139
141
142
141
142
143
144
145
145
172
172
175
176
176
175
172
172
172
170
170
171
170
168
169
167
167
165
165
163
163
162
159
112
100
101
132
162
183
192
158
99
120
176
201
205
204
204
201
185
159
136
146
148
146
144
142
142
141
140
141
140
140
140
139
140
140
140
141
142
142
142
142
143
170
171
173
176
176
173
171
170
170
169
170
169
170
168
167
166
166
165
164
163
162
161
156
102
121
100
110
119
131
141
90
20
26
140
180
175
172
178
190
198
200
188
149
146
146
144
142
140
140
139
140
139
139
138
138
138
136
138
139
139
140
140
142
140
170
170
171
174
174
171
170
170
169
168
168
169
168
167
166
165
164
165
162
162
161
160
150
81
117
119
126
119
96
103
103
44
70
148
158
148
148
149
149
168
196
204
177
143
143
143
142
142
139
138
138
138
136
137
137
136
136
136
137
137
138
138
139
137
168
169
170
172
172
170
169
168
168
168
167
167
166
166
166
164
165
164
162
160
161
158
109
68
114
135
142
139
110
112
115
117
150
170
148
143
142
138
141
147
166
201
183
116
141
142
140
140
139
138
136
136
137
136
136
136
136
137
135
136
137
137
136
137
167
168
169
172
172
169
168
167
166
167
166
166
166
166
164
165
163
163
161
161
160
158
83
58
116
170
180
160
118
134
161
170
182
184
160
153
142
137
138
140
155
194
187
96
120
138
139
138
137
137
136
136
134
135
135
136
134
134
135
134
135
135
136
136
167
167
169
170
170
169
167
167
166
166
164
164
165
164
163
164
163
162
162
160
159
157
73
72
135
180
189
143
146
170
187
194
196
194
174
157
145
138
141
144
158
193
192
97
82
136
137
136
135
135
134
134
134
132
133
135
132
134
133
132
133
132
134
133
167
168
168
170
170
168
168
167
166
165
166
164
164
164
162
162
162
162
161
158
158
157
72
70
130
159
169
161
173
184
194
195
198
200
192
169
150
148
144
151
168
197
186
96
70
109
135
136
136
134
132
132
133
132
132
134
130
131
131
132
130
131
131
131
166
166
167
169
169
167
166
166
165
164
164
164
164
162
162
161
162
161
160
160
158
156
105
74
82
116
168
146
175
186
194
198
201
202
201
196
180
175
167
173
192
206
196
125
78
80
127
135
134
133
133
131
132
132
131
131
130
130
128
128
128
129
128
128
165
165
166
170
170
166
165
165
164
164
164
163
163
163
163
161
161
161
160
160
158
157
151
109
92
78
100
111
171
181
190
202
204
203
202
202
201
200
200
204
208
208
202
158
85
77
110
133
134
132
131
132
130
131
128
128
128
126
127
126
128
127
127
126
162
164
166
168
168
166
164
162
163
163
163
163
164
162
161
161
161
162
160
159
158
156
156
142
124
90
51
81
163
178
186
198
202
202
204
204
205
207
210
210
207
204
193
139
86
78
88
130
132
132
131
129
129
130
129
129
128
127
126
126
125
126
125
125
162
164
164
165
165
164
164
162
162
162
163
163
161
162
160
160
161
160
158
158
157
156
156
156
156
127
77
68
137
170
178
192
200
201
203
205
208
209
209
206
200
194
172
112
83
76
79
123
130
130
129
128
128
128
128
128
126
126
125
124
124
124
122
120
162
163
162
164
164
162
163
162
162
162
163
163
162
162
160
158
160
158
157
157
156
156
156
156
154
151
94
61
103
157
172
183
196
200
204
206
207
203
199
189
178
158
126
102
91
85
78
125
130
130
129
128
128
128
127
125
124
125
124
123
123
121
120
118
160
161
161
162
162
161
161
160
162
164
164
163
160
160
159
160
159
158
157
158
156
156
156
154
154
150
102
46
54
130
162
173
190
197
199
197
188
178
159
137
121
107
102
112
112
107
102
126
130
129
128
128
127
126
126
127
126
124
123
122
121
120
118
117
159
160
160
162
162
160
160
159
161
162
163
160
158
159
158
158
158
158
157
156
156
155
154
153
132
90
44
34
36
82
133
154
173
169
160
146
130
119
114
107
105
100
100
113
118
109
106
100
128
128
128
127
126
124
124
124
123
122
120
121
118
115
113
114
159
158
158
162
162
158
158
159
160
160
158
158
159
158
158
158
158
157
157
156
154
153
152
118
33
28
29
38
72
62
73
97
112
105
105
104
109
111
108
107
100
96
106
106
120
109
100
75
114
126
125
125
124
124
123
122
121
121
120
118
116
114
111
109
157
156
157
160
160
157
156
157
157
157
156
158
157
156
157
156
157
156
155
154
152
151
118
30
26
29
47
77
66
68
60
64
82
80
87
102
106
102
96
104
92
94
108
112
109
102
102
74
87
126
124
124
122
122
121
120
120
120
119
116
112
110
108
106
155
156
157
157
157
157
156
155
155
156
156
156
156
155
155
154
155
155
154
152
152
137
31
22
22
37
76
161
56
64
71
58
64
79
87
91
90
92
94
96
93
94
100
102
100
105
94
73
61
121
124
123
122
121
120
120
119
116
117
114
110
108
106
104
154
154
155
157
157
155
154
154
154
153
154
155
155
153
155
153
153
154
152
152
150
76
18
18
22
42
136
171
61
60
66
64
45
56
62
70
77
79
81
79
85
84
90
94
93
99
89
78
47
103
122
122
121
121
118
118
118
115
114
111
108
105
104
103
153
153
154
155
155
154
153
153
154
153
154
155
154
154
154
154
152
153
152
150
136
26
18
18
28
74
171
104
49
72
65
63
49
67
66
58
73
78
81
75
78
76
81
72
82
82
85
75
52
68
118
121
122
118
117
116
116
114
111
109
106
103
102
100
152
151
153
153
153
153
151
152
153
152
153
152
151
152
153
152
152
152
151
149
89
17
18
21
28
72
156
52
41
72
64
60
58
60
72
69
76
81
80
74
76
82
85
79
80
81
91
69
45
44
99
119
119
118
117
115
113
110
107
105
102
100
99
98
150
152
153
154
154
153
152
150
151
150
151
151
150
151
152
151
151
150
150
148
58
17
19
22
53
58
143
48
48
68
78
57
54
54
58
59
68
71
73
72
74
76
71
77
79
84
91
72
89
68
80
118
117
117
115
113
110
107
106
102
99
98
96
96
150
150
152
155
155
152
150
150
149
150
150
150
150
150
151
150
150
149
149
144
32
17
18
22
92
133
178
73
46
57
74
81
69
54
48
51
49
57
66
74
69
67
66
66
70
75
88
65
57
65
76
115
114
114
114
110
108
104
101
98
96
94
93
94
150
151
152
154
154
152
151
150
150
149
149
149
149
150
150
150
150
150
147
118
17
15
18
24
139
169
184
66
39
46
59
65
69
71
57
54
49
53
58
67
62
62
66
67
78
81
89
59
38
42
84
114
113
112
111
108
105
101
97
96
94
94
92
91
150
150
152
154
154
152
150
150
148
148
148
148
148
148
149
149
149
148
147
78
16
15
16
32
153
159
132
43
54
44
56
46
42
66
64
56
52
50
60
66
68
60
58
67
82
89
89
50
60
42
61
111
112
110
106
107
102
99
96
94
92
91
89
88
147
149
150
152
152
150
149
147
148
148
148
149
148
148
149
147
148
148
145
42
16
15
17
50
140
139
40
42
60
66
56
50
35
47
52
48
51
54
58
65
60
56
66
72
79
95
93
40
38
68
99
111
111
108
106
102
98
97
94
92
90
89
89
88
148
149
150
150
150
150
149
148
147
146
148
148
148
147
148
146
146
146
137
23
15
15
18
60
110
170
80
56
102
173
70
66
38
49
45
44
46
52
56
62
62
66
66
69
76
95
88
37
26
74
112
110
108
106
104
100
97
95
93
90
89
87
87
88
148
148
150
151
151
150
148
148
148
148
147
146
147
146
146
146
146
146
117
16
16
16
18
38
101
174
182
177
192
194
104
59
44
56
52
52
56
59
63
66
64
59
67
74
83
91
85
34
25
79
110
108
106
103
101
97
94
92
90
87
86
87
88
86
148
149
148
151
151
148
149
148
148
147
148
148
147
146
146
148
147
145
96
16
15
17
43
52
132
181
193
197
198
195
126
44
34
48
55
49
64
68
69
72
71
60
72
75
86
88
88
34
24
88
108
107
104
100
99
95
92
90
88
86
84
85
86
86
148
148
149
151
151
149
148
148
148
148
147
148
147
146
147
146
145
144
80
16
16
43
77
138
172
186
194
197
199
196
130
51
32
38
50
55
62
68
70
67
72
78
75
72
68
82
67
28
26
100
108
105
104
100
98
94
91
89
87
86
84
84
85
84
148
148
149
150
150
149
148
148
149
148
148
148
147
145
146
147
146
144
76
17
38
23
107
156
185
189
194
195
198
196
155
57
39
41
46
55
56
59
62
70
73
84
72
68
65
86
50
30
46
111
107
104
100
98
95
92
89
87
86
84
84
84
84
85
149
150
148
150
150
148
150
149
149
148
147
149
148
146
147
146
146
143
72
20
19
25
123
159
188
192
196
198
197
196
146
53
44
45
48
54
59
51
56
68
63
68
66
73
71
77
36
26
100
108
106
102
99
97
92
89
87
86
82
82
82
81
83
84
150
148
149
150
150
149
148
150
149
148
148
149
149
148
147
147
146
144
56
18
18
32
120
162
186
194
195
198
196
194
134
49
42
39
51
61
62
59
65
70
72
65
67
68
72
71
29
39
112
106
103
99
96
94
90
88
85
83
82
82
83
82
82
82
149
149
150
153
153
150
149
149
150
149
149
148
148
149
147
146
146
141
34
19
49
36
108
158
184
192
196
197
192
186
92
50
44
42
48
54
56
61
69
63
62
64
64
64
78
49
32
101
110
106
102
96
94
90
87
86
85
84
82
82
82
82
83
85
148
148
148
151
151
148
148
148
148
148
148
148
146
147
146
147
146
134
22
44
66
82
130
149
180
192
195
196
187
188
96
50
45
54
50
55
54
60
64
64
68
70
71
74
66
36
69
124
106
102
101
95
91
89
88
86
84
84
83
82
82
84
85
84
148
148
150
150
150
150
148
148
148
148
148
147
147
146
146
146
146
119
21
53
65
107
159
158
172
188
194
194
182
189
159
54
56
58
50
52
56
58
60
60
68
68
66
80
55
32
102
109
105
100
97
94
90
86
87
85
83
83
82
82
83
83
84
85
148
150
151
150
150
151
150
148
150
148
148
147
146
147
146
146
145
123
22
32
52
116
155
166
167
183
191
194
181
186
173
86
56
59
58
55
63
66
58
60
67
71
87
64
57
49
108
105
103
98
95
92
88
85
84
82
83
82
82
82
82
82
84
84
148
150
150
150
150
150
150
148
149
150
150
150
149
148
148
148
146
128
23
25
71
120
126
162
174
185
192
191
179
183
181
89
52
60
59
63
69
71
64
64
65
73
67
57
61
98
106
104
100
98
93
88
87
86
84
83
82
81
80
80
80
82
84
86
150
149
149
152
152
149
149
150
150
151
151
150
150
149
148
146
146
130
24
25
84
134
136
127
160
178
192
193
180
171
174
88
52
57
58
63
69
76
64
70
78
74
49
64
92
110
105
102
96
93
91
88
86
84
83
80
80
79
79
79
80
81
83
84
149
151
150
152
152
150
151
149
150
150
148
148
149
149
149
147
148
125
25
27
75
137
144
158
166
167
179
188
174
145
118
59
54
57
59
60
66
74
72
80
83
34
46
60
104
105
103
100
95
92
89
86
84
83
81
80
79
78
78
78
79
79
81
82
150
150
149
152
152
149
150
150
150
151
148
149
149
149
148
147
148
118
25
30
52
134
148
163
164
175
178
178
121
54
48
50
55
63
66
71
68
74
89
93
45
30
37
69
100
99
107
101
109
77
86
83
83
82
80
78
78
76
77
77
78
78
80
80
148
148
148
150
150
148
148
148
149
148
149
150
148
149
148
148
146
110
27
44
86
121
147
154
169
172
180
184
80
40
45
50
55
72
80
80
68
74
91
89
36
44
74
93
90
80
86
87
107
60
54
81
79
78
78
78
77
76
75
76
76
76
78
80
148
145
146
147
147
146
145
148
148
146
147
147
148
146
146
146
145
100
26
66
100
133
148
149
165
166
174
179
94
42
50
53
62
79
96
104
86
82
97
86
48
89
92
104
123
108
84
90
88
92
74
71
77
77
76
76
75
74
76
74
74
76
77
78
147
146
144
146
146
144
146
147
146
145
145
146
146
145
144
144
142
88
26
68
90
144
154
153
152
160
155
125
50
44
46
64
69
82
102
112
86
67
45
40
98
121
76
94
117
117
46
86
84
82
81
78
77
76
75
74
74
73
74
75
75
75
77
78
146
145
144
146
146
144
145
146
146
146
146
145
146
145
145
142
143
76
28
74
77
139
161
161
143
130
92
44
43
40
55
64
72
84
105
105
44
28
33
44
145
121
106
98
102
136
120
77
84
80
78
79
76
74
72
72
73
73
74
74
73
75
77
78
145
145
145
146
146
145
145
145
147
146
146
146
145
145
144
144
143
73
28
78
62
131
162
165
142
45
32
43
61
48
44
52
62
77
91
74
17
17
62
109
158
106
101
98
94
99
138
133
86
78
77
76
74
74
72
72
72
71
73
74
74
76
77
75
144
144
146
146
146
146
144
144
146
145
146
145
144
143
145
143
142
77
38
77
42
116
139
139
93
58
48
46
60
52
34
69
87
98
103
36
15
58
108
104
145
104
100
95
92
88
94
132
136
82
76
74
72
73
72
72
71
71
72
73
74
75
76
76
144
143
142
145
145
142
143
144
144
145
144
144
144
144
144
142
140
83
52
65
58
63
94
102
53
56
61
62
66
40
20
71
105
122
121
34
45
103
110
88
109
99
99
94
97
86
82
82
105
101
76
74
72
72
71
72
71
72
74
74
74
76
77
79
145
143
142
144
144
142
143
145
144
144
145
144
144
144
144
142
139
84
38
42
32
39
69
59
40
60
74
72
62
27
14
36
92
122
116
72
74
117
123
106
110
92
84
88
115
76
74
80
80
82
88
90
87
84
77
74
72
73
73
74
73
73
76
77
144
144
145
146
146
145
144
144
146
146
145
144
144
143
145
142
141
78
19
18
19
32
39
40
46
56
57
49
40
33
62
48
42
78
71
84
136
134
81
70
94
84
83
74
64
73
38
82
88
98
102
106
108
108
109
105
104
91
76
73
72
72
74
74
146
145
145
146
146
145
145
146
146
146
146
145
145
144
144
144
142
74
22
20
25
44
39
55
56
43
31
24
24
87
159
137
149
140
156
128
111
75
68
65
64
60
60
65
66
68
58
61
93
97
98
108
108
115
114
114
118
118
109
100
79
72
73
74
146
145
144
146
146
144
145
146
146
146
146
145
146
146
144
143
142
74
19
17
27
46
41
48
46
25
16
14
13
44
62
41
55
68
71
64
63
61
65
63
66
66
68
69
72
72
74
76
80
85
80
84
94
95
98
99
100
103
102
111
106
90
72
73
