P2
# Created by Paint Shop Pro 6
8 8
255
186 178 171 166 160 148 148 157 175 170 160 154 160 144 140 142 166 163 
145 147 178 142 132 129 157 157 135 84 118 99 118 114 150 148 78 91 57 
72 93 95 149 147 87 164 55 66 94 84 148 147 103 138 70 81 83 78 144 144 
75 55 82 90 86 79 
