P2
# CREATOR: The GIMP's PNM Filter Version 1.0
64 64
255
254
254
254
254
254
254
254
254
254
254
254
254
254
254
254
254
254
254
254
254
254
254
254
254
254
254
254
253
252
252
251
251
251
251
251
252
253
254
254
254
254
254
254
254
254
254
254
254
254
254
254
254
254
254
254
254
254
254
254
254
254
254
254
254
254
254
254
254
254
254
254
254
254
254
254
254
254
254
254
254
254
254
254
254
254
254
253
252
250
249
247
246
245
244
243
243
243
243
244
245
246
247
248
250
252
253
254
254
254
254
254
254
254
254
254
254
254
254
254
254
254
254
254
254
254
254
254
254
254
254
254
254
254
254
254
254
254
254
254
254
254
254
254
254
254
254
254
254
252
250
248
245
243
241
240
238
237
236
235
235
235
235
236
237
238
239
241
242
244
247
250
252
254
254
254
254
254
254
254
254
254
254
254
254
254
254
254
254
254
254
254
254
254
254
254
254
254
254
254
254
254
254
254
254
254
254
254
254
254
254
252
248
245
242
240
238
235
233
232
230
229
228
227
227
227
227
228
229
230
231
233
235
237
240
242
245
248
251
253
254
254
254
254
254
254
254
254
254
254
254
254
254
254
254
254
254
254
254
254
254
254
254
254
254
254
254
254
254
254
254
254
254
252
248
245
241
238
235
232
230
228
226
224
222
221
220
219
219
219
219
220
221
222
224
225
227
230
232
234
238
241
244
248
252
254
254
254
254
254
254
254
254
254
254
254
254
254
254
254
254
254
254
254
254
254
254
254
254
254
254
254
254
254
254
252
249
245
241
237
234
231
228
224
222
220
218
216
214
213
212
211
211
211
211
212
213
214
216
218
220
222
224
227
230
233
237
241
244
248
252
254
254
254
254
254
254
254
254
254
254
254
254
254
254
254
254
254
254
254
254
254
254
254
254
254
254
254
251
247
242
238
234
230
227
223
220
217
214
212
210
208
206
205
204
203
203
203
203
204
205
206
208
210
212
214
217
220
223
226
230
234
238
242
246
250
254
254
254
254
254
254
254
254
254
254
254
254
254
254
254
254
254
254
254
254
254
254
254
254
254
250
245
240
236
231
227
223
219
216
213
210
207
204
202
200
199
197
196
195
195
195
195
196
197
198
200
202
204
206
209
212
215
219
223
227
231
235
240
245
249
254
254
254
254
254
254
254
254
254
254
254
254
254
254
254
254
254
254
254
254
254
254
253
249
244
239
234
229
225
220
216
212
209
205
202
200
196
194
192
191
189
189
187
187
187
187
188
189
190
192
194
196
199
202
205
208
212
216
220
224
229
233
238
243
248
252
254
254
254
254
254
254
254
254
254
254
254
254
254
254
254
254
254
254
254
253
248
243
238
233
227
223
218
214
209
205
202
198
195
192
189
186
184
183
182
181
179
179
179
179
180
181
183
184
186
189
192
194
198
201
205
209
213
217
222
227
232
237
242
248
252
254
254
254
254
254
254
254
254
254
254
254
254
254
254
254
254
254
253
248
243
237
232
226
221
216
211
207
203
198
194
191
187
184
182
179
177
175
174
173
171
171
171
171
173
173
175
176
178
182
184
187
190
194
198
202
206
211
216
221
226
231
236
242
248
252
254
254
254
254
254
254
254
254
254
254
254
254
254
254
254
254
249
243
237
231
226
220
215
210
205
200
196
192
188
184
180
177
174
172
170
167
166
165
164
163
163
164
165
166
167
169
172
174
177
180
183
187
191
195
200
205
209
214
220
225
231
236
242
248
253
254
254
254
254
254
254
254
254
254
254
254
254
254
254
250
244
238
232
226
220
214
209
204
199
194
189
185
180
177
173
170
166
164
162
160
158
157
156
155
155
156
157
158
160
162
164
166
169
173
176
180
184
189
193
198
203
208
214
219
225
231
237
243
249
254
254
254
254
254
254
254
254
254
254
254
254
254
251
245
239
233
226
220
214
209
203
198
193
187
183
178
174
170
166
163
159
156
154
152
150
149
148
147
147
148
149
150
152
154
156
159
162
166
169
173
177
182
187
192
197
202
208
214
220
226
232
238
244
250
254
254
254
254
254
254
254
254
254
254
254
252
247
240
234
227
221
215
209
203
198
192
186
181
176
171
167
163
159
155
152
149
146
144
142
141
140
139
139
140
141
142
144
146
148
152
155
158
162
166
171
176
181
186
191
197
202
208
214
220
227
233
239
246
252
254
254
254
254
254
254
254
254
254
254
249
242
236
229
223
216
210
204
198
192
186
180
175
170
165
161
156
152
148
145
142
139
136
134
133
132
131
131
132
133
134
136
138
141
144
148
152
156
160
165
169
175
180
186
191
197
203
209
215
222
228
235
242
248
254
254
254
254
254
254
254
254
254
252
245
238
231
225
218
211
205
199
193
186
180
175
169
164
159
154
149
145
141
137
134
132
128
127
125
124
123
123
124
125
126
128
131
134
137
141
145
149
153
158
164
168
174
180
186
192
198
204
211
217
224
231
237
244
251
254
254
254
254
254
254
254
254
248
241
234
227
220
214
207
200
194
187
181
175
169
164
158
153
148
143
138
134
130
127
124
122
119
117
116
115
115
116
117
118
120
124
126
130
134
138
142
147
152
158
163
168
174
181
187
193
199
206
213
220
226
233
240
247
253
254
254
254
254
254
254
252
245
237
230
223
216
209
203
196
189
183
176
170
164
158
152
147
142
137
132
127
123
120
116
114
112
110
108
107
107
108
109
111
114
116
119
123
127
131
136
141
146
152
158
163
169
175
182
188
195
202
208
215
222
229
236
244
251
254
254
254
254
254
254
248
241
234
227
219
212
205
198
192
185
178
171
165
159
153
147
141
136
130
125
121
116
112
109
106
104
102
100
99
99
100
102
104
106
109
112
116
120
125
130
135
140
146
152
158
164
171
177
184
191
198
204
212
219
226
233
240
247
253
254
254
254
254
252
245
238
231
223
216
209
202
194
188
180
174
167
161
154
148
142
136
130
124
119
114
110
105
102
98
96
94
92
91
91
92
94
96
98
101
105
109
113
118
124
129
135
141
147
153
160
166
173
180
187
194
201
208
215
222
230
237
244
252
254
254
254
254
250
242
235
228
220
213
205
198
191
184
177
170
163
156
149
143
137
130
124
119
113
108
103
98
94
91
88
86
85
83
83
85
86
88
91
94
98
102
107
112
118
124
130
136
142
149
155
162
169
176
183
190
197
204
212
219
226
234
242
249
254
254
254
253
248
240
232
224
217
210
202
195
187
180
173
166
159
152
145
138
132
125
119
113
107
102
97
92
88
84
81
78
77
76
76
77
78
80
84
87
91
96
101
106
112
118
125
131
138
144
151
158
165
172
179
187
194
201
209
216
224
231
238
246
253
254
254
252
245
238
230
222
214
207
200
192
184
177
170
163
155
148
141
134
127
121
114
108
102
96
90
85
81
77
74
70
69
68
68
69
70
73
76
80
85
90
95
101
107
113
120
126
133
140
147
154
162
169
176
184
191
198
206
214
221
228
236
244
252
254
254
250
243
235
228
220
212
204
196
189
182
174
166
159
152
145
137
130
123
116
110
103
97
90
85
79
74
70
66
64
61
60
60
61
63
66
69
74
79
84
90
96
102
109
116
122
129
137
144
151
158
166
173
180
188
196
204
211
218
226
234
242
250
254
254
249
241
233
226
218
210
202
194
186
179
172
164
156
149
142
134
127
120
112
105
98
92
85
79
74
68
63
59
56
54
52
52
53
56
59
63
67
73
79
85
91
98
104
112
119
126
133
141
148
156
163
170
178
186
194
202
209
216
224
232
240
248
254
254
247
240
232
224
216
208
200
192
184
177
170
162
154
146
139
132
124
116
109
102
94
88
81
74
68
62
57
52
48
46
44
44
46
48
52
56
62
67
73
80
87
94
101
108
115
123
130
138
146
153
160
168
176
184
192
199
207
215
223
230
238
246
253
253
246
238
230
222
214
206
199
191
183
175
167
160
152
144
136
128
122
114
106
98
91
84
77
70
63
57
51
46
41
38
36
36
38
41
45
50
56
62
69
76
83
90
98
105
112
120
128
136
144
151
159
166
174
182
190
198
206
213
221
229
237
245
252
252
245
237
229
221
213
205
197
189
182
174
166
158
150
142
134
127
119
112
104
96
88
81
74
66
59
52
46
40
34
30
28
28
30
34
39
45
51
58
65
73
80
88
95
102
110
118
126
134
142
149
157
165
173
181
188
196
204
212
220
228
236
244
251
252
244
236
228
220
212
204
196
189
181
173
165
157
149
141
133
125
117
110
102
94
86
78
70
64
56
48
41
34
28
23
20
20
23
28
33
40
47
55
62
70
78
85
93
100
108
116
124
132
140
148
156
164
171
179
187
195
203
211
219
227
235
243
251
251
243
235
227
219
211
203
195
187
179
171
164
156
148
140
132
124
116
108
100
92
85
77
69
61
54
46
38
30
23
17
13
12
16
22
30
37
44
52
60
68
76
83
91
99
107
115
123
131
139
147
155
163
171
179
187
195
203
211
219
227
235
243
251
251
243
235
227
219
211
203
195
187
179
171
163
155
147
139
131
123
115
107
99
91
83
76
68
60
52
44
36
28
20
13
6
5
12
20
27
35
43
51
59
67
75
83
91
99
107
115
123
131
139
147
155
163
171
179
187
195
203
211
219
227
235
243
251
251
243
235
227
219
211
203
195
187
179
171
163
155
147
139
131
123
115
107
99
91
83
76
68
60
52
44
36
28
20
12
5
5
12
19
27
35
43
51
59
67
75
83
91
99
107
115
123
131
139
147
155
163
171
179
187
195
203
211
219
227
235
243
251
251
243
235
227
219
211
203
195
187
179
171
164
156
148
140
132
124
116
108
100
92
85
77
69
61
53
46
38
30
23
16
12
12
16
22
29
36
44
52
60
68
76
83
91
99
107
115
123
131
139
147
155
163
171
179
187
195
203
211
219
227
235
243
251
251
244
236
228
220
212
204
196
188
180
173
165
157
149
141
133
125
117
109
102
94
86
78
70
63
56
48
41
34
28
22
20
19
22
27
33
40
47
54
62
70
78
85
92
100
108
116
124
132
140
148
156
163
171
179
187
195
203
211
219
227
235
243
251
252
245
237
229
221
213
205
197
189
181
173
166
158
150
142
134
126
118
111
104
96
88
80
73
66
59
52
45
39
33
30
27
27
29
33
38
44
51
58
65
72
80
87
94
102
110
118
126
134
141
149
157
165
172
180
188
196
204
212
220
228
236
244
251
253
246
238
230
222
214
206
198
190
183
175
167
160
152
144
136
128
120
114
106
98
91
84
76
69
63
56
50
45
40
37
35
35
36
40
44
50
55
62
68
76
82
90
97
104
112
120
128
136
143
150
158
166
174
182
190
198
205
213
221
229
237
245
252
254
247
239
231
224
216
208
200
192
184
176
169
162
154
146
138
131
124
116
109
101
94
87
80
74
67
62
56
51
47
44
43
43
44
47
51
55
61
67
73
80
86
93
100
108
115
122
130
138
146
152
160
168
176
184
191
199
207
215
222
230
238
246
253
254
248
241
233
225
218
210
202
194
186
178
172
164
156
148
141
134
126
119
112
105
98
91
85
79
73
67
62
58
55
52
51
51
52
54
58
62
67
72
78
84
90
97
104
111
118
125
133
140
148
156
163
170
178
186
194
201
208
216
224
232
240
248
254
254
250
242
235
227
220
212
204
196
189
182
174
166
159
152
144
137
130
123
116
109
102
96
90
84
79
73
69
65
62
60
59
59
60
62
65
68
73
78
83
89
95
101
108
115
122
129
136
143
151
158
166
173
180
188
196
204
210
218
226
234
242
249
254
254
252
244
237
230
222
214
206
199
192
184
177
169
162
155
148
141
134
127
120
113
107
101
95
90
85
80
76
73
70
68
67
67
68
70
72
76
80
84
89
94
100
106
113
119
126
133
140
147
154
161
168
176
183
190
198
206
214
220
228
236
244
251
254
254
253
247
240
232
224
217
209
202
194
187
180
173
166
158
152
145
138
131
125
118
112
106
101
96
91
87
83
80
78
76
75
75
76
78
80
82
86
90
95
100
106
112
118
124
130
137
144
151
158
164
172
179
186
194
201
208
216
224
231
238
246
253
254
254
254
250
242
234
227
220
212
205
198
190
183
176
169
162
156
149
142
136
130
124
118
112
107
102
98
94
90
88
85
83
83
83
83
85
87
90
93
97
101
106
112
117
123
129
135
141
148
155
162
168
175
182
189
197
204
211
219
226
234
241
248
254
254
254
254
252
245
238
230
223
215
208
201
194
187
180
173
166
160
153
147
141
135
129
124
118
113
109
104
101
98
95
93
91
91
91
91
92
94
97
100
104
108
113
118
123
128
134
140
146
153
159
166
172
179
186
193
200
207
215
222
229
237
244
251
254
254
254
254
254
248
241
233
226
219
212
205
198
191
184
177
171
165
158
152
146
140
135
130
125
120
116
112
108
105
102
100
99
99
99
99
100
102
104
108
111
115
119
124
129
134
140
146
151
158
164
170
177
183
190
197
204
211
218
225
233
240
247
253
254
254
254
254
254
251
244
237
230
223
216
209
202
195
189
182
176
169
164
158
152
146
141
136
131
126
122
119
115
112
110
108
107
107
107
107
108
110
112
115
118
122
126
130
135
140
146
151
157
163
169
175
181
188
194
201
208
215
222
229
236
243
250
254
254
254
254
254
254
253
248
241
234
227
220
213
206
200
193
187
181
175
168
163
158
152
147
142
138
133
129
126
123
120
118
116
115
115
115
115
116
118
120
122
125
129
133
137
141
146
151
157
162
168
174
180
186
193
199
205
212
219
226
233
240
247
253
254
254
254
254
254
254
254
252
244
238
231
224
217
211
205
198
192
186
180
174
168
163
158
153
149
144
140
137
133
130
128
126
124
123
123
123
123
124
126
128
130
133
136
140
144
148
153
158
163
168
173
179
185
191
197
204
210
217
223
230
237
244
250
254
254
254
254
254
254
254
254
254
248
242
235
229
222
216
209
203
197
191
186
180
174
169
164
160
155
151
147
144
141
138
136
134
132
131
131
131
131
132
134
136
138
140
143
147
151
155
159
164
169
174
179
185
190
196
202
209
215
221
228
234
241
248
254
254
254
254
254
254
254
254
254
254
252
246
240
233
227
221
214
208
202
197
191
186
181
175
171
166
162
158
154
151
148
146
144
142
140
139
139
139
139
140
141
143
146
148
151
154
158
162
166
170
175
180
185
190
196
202
208
214
220
226
233
239
245
252
254
254
254
254
254
254
254
254
254
254
254
250
245
238
232
226
220
214
208
202
197
192
187
182
177
173
169
165
162
158
156
153
151
149
148
147
147
147
147
148
149
150
152
156
158
161
164
168
172
177
181
186
191
196
202
207
213
219
225
231
237
244
250
254
254
254
254
254
254
254
254
254
254
254
254
254
249
243
237
231
225
219
214
208
203
198
193
188
184
180
176
172
169
166
163
160
159
157
156
155
155
155
155
156
157
158
160
163
166
168
172
175
179
183
188
193
197
202
208
213
219
224
230
236
242
248
254
254
254
254
254
254
254
254
254
254
254
254
254
254
254
248
242
236
231
225
220
214
209
204
199
195
191
187
183
179
176
173
170
168
166
165
164
163
163
163
163
163
165
166
168
170
173
176
179
182
186
190
194
199
204
209
214
219
224
230
236
242
248
253
254
254
254
254
254
254
254
254
254
254
254
254
254
254
254
252
248
242
236
231
226
220
215
211
206
202
198
194
190
187
184
180
178
176
174
173
171
171
171
171
171
171
172
174
176
178
180
183
186
189
193
197
201
205
210
215
220
225
230
236
241
247
252
254
254
254
254
254
254
254
254
254
254
254
254
254
254
254
254
254
252
248
242
237
232
227
222
217
213
208
204
201
197
194
191
188
186
184
182
181
179
179
179
179
179
179
180
182
184
186
188
190
194
197
200
204
208
212
217
221
226
231
236
242
247
252
254
254
254
254
254
254
254
254
254
254
254
254
254
254
254
254
254
254
254
252
248
243
238
233
228
224
220
215
212
208
204
201
198
196
194
192
190
188
187
187
187
187
187
187
188
190
191
194
196
198
201
204
207
211
215
219
223
228
233
237
242
248
252
254
254
254
254
254
254
254
254
254
254
254
254
254
254
254
254
254
254
254
254
254
253
249
244
239
235
231
226
222
219
215
212
209
206
204
202
199
198
196
195
195
195
195
195
195
196
198
199
201
204
206
208
211
215
218
222
226
230
234
239
244
248
253
254
254
254
254
254
254
254
254
254
254
254
254
254
254
254
254
254
254
254
254
254
254
254
254
250
246
242
237
233
229
226
222
219
216
214
211
209
207
206
204
203
203
203
203
203
203
204
205
207
208
210
214
216
219
222
225
229
233
237
241
245
250
254
254
254
254
254
254
254
254
254
254
254
254
254
254
254
254
254
254
254
254
254
254
254
254
254
254
254
252
248
244
240
236
233
230
226
224
221
218
216
215
213
212
211
211
211
211
211
211
212
213
215
216
218
220
224
226
229
233
236
240
244
248
252
254
254
254
254
254
254
254
254
254
254
254
254
254
254
254
254
254
254
254
254
254
254
254
254
254
254
254
254
254
254
251
247
244
240
237
234
231
228
226
224
223
221
220
219
219
219
219
219
219
220
221
222
224
226
228
231
234
237
240
243
247
250
254
254
254
254
254
254
254
254
254
254
254
254
254
254
254
254
254
254
254
254
254
254
254
254
254
254
254
254
254
254
254
254
254
253
251
247
244
242
238
236
234
232
230
229
228
227
227
227
227
227
227
228
229
230
232
234
236
238
241
244
247
250
253
254
254
254
254
254
254
254
254
254
254
254
254
254
254
254
254
254
254
254
254
254
254
254
254
254
254
254
254
254
254
254
254
254
254
254
254
253
252
249
246
244
242
240
238
237
236
235
235
235
235
235
235
236
237
238
240
242
244
246
248
251
253
254
254
254
254
254
254
254
254
254
254
254
254
254
254
254
254
254
254
254
254
254
254
254
254
254
254
254
254
254
254
254
254
254
254
254
254
254
254
254
254
254
253
252
250
248
246
245
244
243
243
243
243
243
243
244
245
246
248
249
251
253
254
254
254
254
254
254
254
254
254
254
254
254
254
254
254
254
254
254
254
254
254
254
254
254
254
254
254
254
254
254
254
254
254
254
254
254
254
254
254
254
254
254
254
254
254
254
254
254
253
252
251
251
251
251
251
251
251
251
252
253
254
254
254
254
254
254
254
254
254
254
254
254
254
254
254
254
254
254
254
254
254
254
254
254
254
254
