P2
# CREATOR: The GIMP's PNM Filter Version 1.0
64 64
255
1
5
9
13
17
21
25
29
33
37
41
45
49
53
57
61
65
69
73
77
81
85
89
93
97
101
105
109
113
117
121
125
129
133
137
141
145
149
153
157
161
165
168
172
176
180
184
188
192
196
200
204
208
212
216
220
224
228
232
236
240
244
248
251
1
5
9
13
17
21
25
29
33
37
41
45
49
53
57
61
65
69
73
77
81
85
89
93
97
101
105
109
113
117
121
125
129
133
137
141
145
149
153
157
161
165
168
172
176
180
184
188
192
196
200
204
208
212
216
220
224
228
232
236
240
244
248
251
1
5
9
13
17
21
25
29
33
37
41
45
49
53
57
61
65
69
73
77
81
85
89
93
97
101
105
109
113
117
121
125
129
133
137
141
145
149
153
157
161
165
168
172
176
180
184
188
192
196
200
204
208
212
216
220
224
228
232
236
240
244
248
251
1
5
9
13
17
21
25
29
33
37
41
45
49
53
57
61
65
69
73
77
81
85
89
93
97
101
105
109
113
117
121
125
129
133
137
141
145
149
153
157
161
165
168
172
176
180
184
188
192
196
200
204
208
212
216
220
224
228
232
236
240
244
248
251
1
5
9
13
17
21
25
29
33
37
41
45
49
53
57
61
65
69
73
77
81
85
89
93
97
101
105
109
113
117
121
125
129
133
137
141
145
149
153
157
161
165
168
172
176
180
184
188
192
196
200
204
208
212
216
220
224
228
232
236
240
244
248
251
1
5
9
13
17
21
25
29
33
37
41
45
49
53
57
61
65
69
73
77
81
85
89
93
97
101
105
109
113
117
121
125
129
133
137
141
145
149
153
157
161
165
168
172
176
180
184
188
192
196
200
204
208
212
216
220
224
228
232
236
240
244
248
251
1
5
9
13
17
21
25
29
33
37
41
45
49
53
57
61
65
69
73
77
81
85
89
93
97
101
105
109
113
117
121
125
129
133
137
141
145
149
153
157
161
165
168
172
176
180
184
188
192
196
200
204
208
212
216
220
224
228
232
236
240
244
248
251
1
5
9
13
17
21
25
29
33
37
41
45
49
53
57
61
65
69
73
77
81
85
89
93
97
101
105
109
113
117
121
125
129
133
137
141
145
149
153
157
161
165
168
172
176
180
184
188
192
196
200
204
208
212
216
220
224
228
232
236
240
244
248
251
1
5
9
13
17
21
25
29
33
37
41
45
49
53
57
61
65
69
73
77
81
85
89
93
97
101
105
109
113
117
121
125
129
133
137
141
145
149
153
157
161
165
168
172
176
180
184
188
192
196
200
204
208
212
216
220
224
228
232
236
240
244
248
251
1
5
9
13
17
21
25
29
33
37
41
45
49
53
57
61
65
69
73
77
81
85
89
93
97
101
105
109
113
117
121
125
129
133
137
141
145
149
153
157
161
165
168
172
176
180
184
188
192
196
200
204
208
212
216
220
224
228
232
236
240
244
248
251
1
5
9
13
17
21
25
29
33
37
41
45
49
53
57
61
65
69
73
77
81
85
89
93
97
101
105
109
113
117
121
125
129
133
137
141
145
149
153
157
161
165
168
172
176
180
184
188
192
196
200
204
208
212
216
220
224
228
232
236
240
244
248
251
1
5
9
13
17
21
25
29
33
37
41
45
49
53
57
61
65
69
73
77
81
85
89
93
97
101
105
109
113
117
121
125
129
133
137
141
145
149
153
157
161
165
168
172
176
180
184
188
192
196
200
204
208
212
216
220
224
228
232
236
240
244
248
251
1
5
9
13
17
21
25
29
33
37
41
45
49
53
57
61
65
69
73
77
81
85
89
93
97
101
105
109
113
117
121
125
129
133
137
141
145
149
153
157
161
165
168
172
176
180
184
188
192
196
200
204
208
212
216
220
224
228
232
236
240
244
248
251
1
5
9
13
17
21
25
29
33
37
41
45
49
53
57
61
65
69
73
77
81
85
89
93
97
101
105
109
113
117
121
125
129
133
137
141
145
149
153
157
161
165
168
172
176
180
184
188
192
196
200
204
208
212
216
220
224
228
232
236
240
244
248
251
1
5
9
13
17
21
25
29
33
37
41
45
49
53
57
61
65
69
73
77
81
85
89
93
97
101
105
109
113
117
121
125
129
133
137
141
145
149
153
157
161
165
168
172
176
180
184
188
192
196
200
204
208
212
216
220
224
228
232
236
240
244
248
251
1
5
9
13
17
21
25
29
33
37
41
45
49
53
57
61
65
69
73
77
81
85
89
93
97
101
105
109
113
117
121
125
129
133
137
141
145
149
153
157
161
165
168
172
176
180
184
188
192
196
200
204
208
212
216
220
224
228
232
236
240
244
248
251
1
5
9
13
17
21
25
29
33
37
41
45
49
53
57
61
65
69
73
77
81
85
89
93
97
101
105
109
113
117
121
125
129
133
137
141
145
149
153
157
161
165
168
172
176
180
184
188
192
196
200
204
208
212
216
220
224
228
232
236
240
244
248
251
1
5
9
13
17
21
25
29
33
37
41
45
49
53
57
61
65
69
73
77
81
85
89
93
97
101
105
109
113
117
121
125
129
133
137
141
145
149
153
157
161
165
168
172
176
180
184
188
192
196
200
204
208
212
216
220
224
228
232
236
240
244
248
251
1
5
9
13
17
21
25
29
33
37
41
45
49
53
57
61
65
69
73
77
81
85
89
93
97
101
105
109
113
117
121
125
129
133
137
141
145
149
153
157
161
165
168
172
176
180
184
188
192
196
200
204
208
212
216
220
224
228
232
236
240
244
248
251
1
5
9
13
17
21
25
29
33
37
41
45
49
53
57
61
65
69
73
77
81
85
89
93
97
101
105
109
113
117
121
125
129
133
137
141
145
149
153
157
161
165
168
172
176
180
184
188
192
196
200
204
208
212
216
220
224
228
232
236
240
244
248
251
1
5
9
13
17
21
25
29
33
37
41
45
49
53
57
61
65
69
73
77
81
85
89
93
97
101
105
109
113
117
121
125
129
133
137
141
145
149
153
157
161
165
168
172
176
180
184
188
192
196
200
204
208
212
216
220
224
228
232
236
240
244
248
251
1
5
9
13
17
21
25
29
33
37
41
45
49
53
57
61
65
69
73
77
81
85
89
93
97
101
105
109
113
117
121
125
129
133
137
141
145
149
153
157
161
165
168
172
176
180
184
188
192
196
200
204
208
212
216
220
224
228
232
236
240
244
248
251
1
5
9
13
17
21
25
29
33
37
41
45
49
53
57
61
65
69
73
77
81
85
89
93
97
101
105
109
113
117
121
125
129
133
137
141
145
149
153
157
161
165
168
172
176
180
184
188
192
196
200
204
208
212
216
220
224
228
232
236
240
244
248
251
1
5
9
13
17
21
25
29
33
37
41
45
49
53
57
61
65
69
73
77
81
85
89
93
97
101
105
109
113
117
121
125
129
133
137
141
145
149
153
157
161
165
168
172
176
180
184
188
192
196
200
204
208
212
216
220
224
228
232
236
240
244
248
251
1
5
9
13
17
21
25
29
33
37
41
45
49
53
57
61
65
69
73
77
81
85
89
93
97
101
105
109
113
117
121
125
129
133
137
141
145
149
153
157
161
165
168
172
176
180
184
188
192
196
200
204
208
212
216
220
224
228
232
236
240
244
248
251
1
5
9
13
17
21
25
29
33
37
41
45
49
53
57
61
65
69
73
77
81
85
89
93
97
101
105
109
113
117
121
125
129
133
137
141
145
149
153
157
161
165
168
172
176
180
184
188
192
196
200
204
208
212
216
220
224
228
232
236
240
244
248
251
1
5
9
13
17
21
25
29
33
37
41
45
49
53
57
61
65
69
73
77
81
85
89
93
97
101
105
109
113
117
121
125
129
133
137
141
145
149
153
157
161
165
168
172
176
180
184
188
192
196
200
204
208
212
216
220
224
228
232
236
240
244
248
251
1
5
9
13
17
21
25
29
33
37
41
45
49
53
57
61
65
69
73
77
81
85
89
93
97
101
105
109
113
117
121
125
129
133
137
141
145
149
153
157
161
165
168
172
176
180
184
188
192
196
200
204
208
212
216
220
224
228
232
236
240
244
248
251
1
5
9
13
17
21
25
29
33
37
41
45
49
53
57
61
65
69
73
77
81
85
89
93
97
101
105
109
113
117
121
125
129
133
137
141
145
149
153
157
161
165
168
172
176
180
184
188
192
196
200
204
208
212
216
220
224
228
232
236
240
244
248
251
1
5
9
13
17
21
25
29
33
37
41
45
49
53
57
61
65
69
73
77
81
85
89
93
97
101
105
109
113
117
121
125
129
133
137
141
145
149
153
157
161
165
168
172
176
180
184
188
192
196
200
204
208
212
216
220
224
228
232
236
240
244
248
251
1
5
9
13
17
21
25
29
33
37
41
45
49
53
57
61
65
69
73
77
81
85
89
93
97
101
105
109
113
117
121
125
129
133
137
141
145
149
153
157
161
165
168
172
176
180
184
188
192
196
200
204
208
212
216
220
224
228
232
236
240
244
248
251
1
5
9
13
17
21
25
29
33
37
41
45
49
53
57
61
65
69
73
77
81
85
89
93
97
101
105
109
113
117
121
125
129
133
137
141
145
149
153
157
161
165
168
172
176
180
184
188
192
196
200
204
208
212
216
220
224
228
232
236
240
244
248
251
1
5
9
13
17
21
25
29
33
37
41
45
49
53
57
61
65
69
73
77
81
85
89
93
97
101
105
109
113
117
121
125
129
133
137
141
145
149
153
157
161
165
168
172
176
180
184
188
192
196
200
204
208
212
216
220
224
228
232
236
240
244
248
251
1
5
9
13
17
21
25
29
33
37
41
45
49
53
57
61
65
69
73
77
81
85
89
93
97
101
105
109
113
117
121
125
129
133
137
141
145
149
153
157
161
165
168
172
176
180
184
188
192
196
200
204
208
212
216
220
224
228
232
236
240
244
248
251
1
5
9
13
17
21
25
29
33
37
41
45
49
53
57
61
65
69
73
77
81
85
89
93
97
101
105
109
113
117
121
125
129
133
137
141
145
149
153
157
161
165
168
172
176
180
184
188
192
196
200
204
208
212
216
220
224
228
232
236
240
244
248
251
1
5
9
13
17
21
25
29
33
37
41
45
49
53
57
61
65
69
73
77
81
85
89
93
97
101
105
109
113
117
121
125
129
133
137
141
145
149
153
157
161
165
168
172
176
180
184
188
192
196
200
204
208
212
216
220
224
228
232
236
240
244
248
251
1
5
9
13
17
21
25
29
33
37
41
45
49
53
57
61
65
69
73
77
81
85
89
93
97
101
105
109
113
117
121
125
129
133
137
141
145
149
153
157
161
165
168
172
176
180
184
188
192
196
200
204
208
212
216
220
224
228
232
236
240
244
248
251
1
5
9
13
17
21
25
29
33
37
41
45
49
53
57
61
65
69
73
77
81
85
89
93
97
101
105
109
113
117
121
125
129
133
137
141
145
149
153
157
161
165
168
172
176
180
184
188
192
196
200
204
208
212
216
220
224
228
232
236
240
244
248
251
1
5
9
13
17
21
25
29
33
37
41
45
49
53
57
61
65
69
73
77
81
85
89
93
97
101
105
109
113
117
121
125
129
133
137
141
145
149
153
157
161
165
168
172
176
180
184
188
192
196
200
204
208
212
216
220
224
228
232
236
240
244
248
251
1
5
9
13
17
21
25
29
33
37
41
45
49
53
57
61
65
69
73
77
81
85
89
93
97
101
105
109
113
117
121
125
129
133
137
141
145
149
153
157
161
165
168
172
176
180
184
188
192
196
200
204
208
212
216
220
224
228
232
236
240
244
248
251
1
5
9
13
17
21
25
29
33
37
41
45
49
53
57
61
65
69
73
77
81
85
89
93
97
101
105
109
113
117
121
125
129
133
137
141
145
149
153
157
161
165
168
172
176
180
184
188
192
196
200
204
208
212
216
220
224
228
232
236
240
244
248
251
1
5
9
13
17
21
25
29
33
37
41
45
49
53
57
61
65
69
73
77
81
85
89
93
97
101
105
109
113
117
121
125
129
133
137
141
145
149
153
157
161
165
168
172
176
180
184
188
192
196
200
204
208
212
216
220
224
228
232
236
240
244
248
251
1
5
9
13
17
21
25
29
33
37
41
45
49
53
57
61
65
69
73
77
81
85
89
93
97
101
105
109
113
117
121
125
129
133
137
141
145
149
153
157
161
165
168
172
176
180
184
188
192
196
200
204
208
212
216
220
224
228
232
236
240
244
248
251
1
5
9
13
17
21
25
29
33
37
41
45
49
53
57
61
65
69
73
77
81
85
89
93
97
101
105
109
113
117
121
125
129
133
137
141
145
149
153
157
161
165
168
172
176
180
184
188
192
196
200
204
208
212
216
220
224
228
232
236
240
244
248
251
1
5
9
13
17
21
25
29
33
37
41
45
49
53
57
61
65
69
73
77
81
85
89
93
97
101
105
109
113
117
121
125
129
133
137
141
145
149
153
157
161
165
168
172
176
180
184
188
192
196
200
204
208
212
216
220
224
228
232
236
240
244
248
251
1
5
9
13
17
21
25
29
33
37
41
45
49
53
57
61
65
69
73
77
81
85
89
93
97
101
105
109
113
117
121
125
129
133
137
141
145
149
153
157
161
165
168
172
176
180
184
188
192
196
200
204
208
212
216
220
224
228
232
236
240
244
248
251
1
5
9
13
17
21
25
29
33
37
41
45
49
53
57
61
65
69
73
77
81
85
89
93
97
101
105
109
113
117
121
125
129
133
137
141
145
149
153
157
161
165
168
172
176
180
184
188
192
196
200
204
208
212
216
220
224
228
232
236
240
244
248
251
1
5
9
13
17
21
25
29
33
37
41
45
49
53
57
61
65
69
73
77
81
85
89
93
97
101
105
109
113
117
121
125
129
133
137
141
145
149
153
157
161
165
168
172
176
180
184
188
192
196
200
204
208
212
216
220
224
228
232
236
240
244
248
251
1
5
9
13
17
21
25
29
33
37
41
45
49
53
57
61
65
69
73
77
81
85
89
93
97
101
105
109
113
117
121
125
129
133
137
141
145
149
153
157
161
165
168
172
176
180
184
188
192
196
200
204
208
212
216
220
224
228
232
236
240
244
248
251
1
5
9
13
17
21
25
29
33
37
41
45
49
53
57
61
65
69
73
77
81
85
89
93
97
101
105
109
113
117
121
125
129
133
137
141
145
149
153
157
161
165
168
172
176
180
184
188
192
196
200
204
208
212
216
220
224
228
232
236
240
244
248
251
1
5
9
13
17
21
25
29
33
37
41
45
49
53
57
61
65
69
73
77
81
85
89
93
97
101
105
109
113
117
121
125
129
133
137
141
145
149
153
157
161
165
168
172
176
180
184
188
192
196
200
204
208
212
216
220
224
228
232
236
240
244
248
251
1
5
9
13
17
21
25
29
33
37
41
45
49
53
57
61
65
69
73
77
81
85
89
93
97
101
105
109
113
117
121
125
129
133
137
141
145
149
153
157
161
165
168
172
176
180
184
188
192
196
200
204
208
212
216
220
224
228
232
236
240
244
248
251
1
5
9
13
17
21
25
29
33
37
41
45
49
53
57
61
65
69
73
77
81
85
89
93
97
101
105
109
113
117
121
125
129
133
137
141
145
149
153
157
161
165
168
172
176
180
184
188
192
196
200
204
208
212
216
220
224
228
232
236
240
244
248
251
1
5
9
13
17
21
25
29
33
37
41
45
49
53
57
61
65
69
73
77
81
85
89
93
97
101
105
109
113
117
121
125
129
133
137
141
145
149
153
157
161
165
168
172
176
180
184
188
192
196
200
204
208
212
216
220
224
228
232
236
240
244
248
251
1
5
9
13
17
21
25
29
33
37
41
45
49
53
57
61
65
69
73
77
81
85
89
93
97
101
105
109
113
117
121
125
129
133
137
141
145
149
153
157
161
165
168
172
176
180
184
188
192
196
200
204
208
212
216
220
224
228
232
236
240
244
248
251
1
5
9
13
17
21
25
29
33
37
41
45
49
53
57
61
65
69
73
77
81
85
89
93
97
101
105
109
113
117
121
125
129
133
137
141
145
149
153
157
161
165
168
172
176
180
184
188
192
196
200
204
208
212
216
220
224
228
232
236
240
244
248
251
1
5
9
13
17
21
25
29
33
37
41
45
49
53
57
61
65
69
73
77
81
85
89
93
97
101
105
109
113
117
121
125
129
133
137
141
145
149
153
157
161
165
168
172
176
180
184
188
192
196
200
204
208
212
216
220
224
228
232
236
240
244
248
251
1
5
9
13
17
21
25
29
33
37
41
45
49
53
57
61
65
69
73
77
81
85
89
93
97
101
105
109
113
117
121
125
129
133
137
141
145
149
153
157
161
165
168
172
176
180
184
188
192
196
200
204
208
212
216
220
224
228
232
236
240
244
248
251
1
5
9
13
17
21
25
29
33
37
41
45
49
53
57
61
65
69
73
77
81
85
89
93
97
101
105
109
113
117
121
125
129
133
137
141
145
149
153
157
161
165
168
172
176
180
184
188
192
196
200
204
208
212
216
220
224
228
232
236
240
244
248
251
1
5
9
13
17
21
25
29
33
37
41
45
49
53
57
61
65
69
73
77
81
85
89
93
97
101
105
109
113
117
121
125
129
133
137
141
145
149
153
157
161
165
168
172
176
180
184
188
192
196
200
204
208
212
216
220
224
228
232
236
240
244
248
251
1
5
9
13
17
21
25
29
33
37
41
45
49
53
57
61
65
69
73
77
81
85
89
93
97
101
105
109
113
117
121
125
129
133
137
141
145
149
153
157
161
165
168
172
176
180
184
188
192
196
200
204
208
212
216
220
224
228
232
236
240
244
248
251
1
5
9
13
17
21
25
29
33
37
41
45
49
53
57
61
65
69
73
77
81
85
89
93
97
101
105
109
113
117
121
125
129
133
137
141
145
149
153
157
161
165
168
172
176
180
184
188
192
196
200
204
208
212
216
220
224
228
232
236
240
244
248
251
1
5
9
13
17
21
25
29
33
37
41
45
49
53
57
61
65
69
73
77
81
85
89
93
97
101
105
109
113
117
121
125
129
133
137
141
145
149
153
157
161
165
168
172
176
180
184
188
192
196
200
204
208
212
216
220
224
228
232
236
240
244
248
251
1
5
9
13
17
21
25
29
33
37
41
45
49
53
57
61
65
69
73
77
81
85
89
93
97
101
105
109
113
117
121
125
129
133
137
141
145
149
153
157
161
165
168
172
176
180
184
188
192
196
200
204
208
212
216
220
224
228
232
236
240
244
248
251
