P2
# CREATOR: The GIMP's PNM Filter Version 1.0
64 64
255
0
0
0
0
0
0
1
5
8
11
15
18
22
25
29
32
35
39
42
45
49
52
56
59
63
66
69
73
76
80
83
86
90
93
97
100
103
107
110
113
117
120
124
127
131
134
137
141
144
148
151
155
158
161
165
168
171
175
178
181
185
188
192
195
0
0
0
0
0
0
3
6
9
13
16
20
23
27
30
33
37
40
44
47
50
54
57
61
64
67
71
74
78
81
84
88
91
95
98
101
105
108
111
115
118
122
125
129
132
135
139
142
146
149
153
156
159
163
166
169
173
176
179
183
186
190
193
197
0
0
0
0
0
1
4
7
11
14
18
21
25
28
31
35
38
42
45
48
52
55
59
62
65
69
72
76
79
83
86
89
93
96
99
103
106
110
113
116
120
123
127
130
133
137
140
144
147
151
154
157
161
164
167
171
174
177
181
184
188
191
195
198
0
0
0
0
0
2
5
9
12
16
19
23
26
29
33
36
40
43
47
50
53
57
60
63
67
70
74
77
81
84
87
91
94
97
101
104
108
111
114
118
121
125
128
131
135
138
142
145
149
152
155
159
162
165
169
172
176
179
182
186
189
193
196
199
0
0
0
0
0
4
7
10
14
17
21
24
27
31
34
38
41
45
48
51
55
58
61
65
68
72
75
79
82
85
89
92
95
99
102
106
109
113
116
119
123
126
129
133
136
140
143
147
150
153
157
160
164
167
170
174
177
180
184
187
191
194
197
201
0
0
0
0
2
5
8
12
15
19
22
25
29
32
36
39
43
46
49
53
56
60
63
66
70
73
77
80
83
87
90
93
97
100
104
107
111
114
117
121
124
127
131
134
138
141
145
148
151
155
158
162
165
168
172
175
179
182
185
189
192
195
199
202
0
0
0
0
3
6
10
13
17
20
23
27
30
34
37
41
44
47
51
54
58
61
64
68
71
75
78
81
85
88
91
95
98
102
105
109
112
115
119
122
126
129
132
136
139
143
146
149
153
156
160
163
166
170
173
177
180
183
187
190
193
197
200
204
0
0
0
1
5
8
11
15
18
21
25
28
32
35
39
42
45
49
52
56
59
63
66
69
73
76
79
83
86
89
93
96
100
103
107
110
113
117
120
124
127
130
134
137
141
144
147
151
154
158
161
165
168
171
175
178
181
185
188
192
195
198
202
205
0
0
0
3
6
9
13
16
19
23
26
30
33
37
40
43
47
50
54
57
61
64
67
71
74
77
81
84
87
91
94
98
101
105
108
111
115
118
122
125
129
132
135
139
142
145
149
152
156
159
163
166
169
173
176
179
183
186
190
193
196
200
203
207
0
0
1
4
7
11
14
18
21
24
28
31
35
38
41
45
48
52
55
59
62
65
69
72
76
79
82
85
89
92
96
99
103
106
109
113
116
120
123
127
130
133
137
140
143
147
150
154
157
161
164
167
171
174
177
181
184
188
191
194
198
201
205
208
0
0
2
5
9
12
16
19
22
26
29
33
36
39
43
46
50
53
57
60
63
67
70
74
77
80
84
87
90
94
97
101
104
107
111
114
118
121
125
128
131
135
138
141
145
148
152
155
159
162
165
169
172
175
179
182
186
189
193
196
199
203
206
209
0
0
3
7
10
14
17
21
24
27
31
34
37
41
44
48
51
55
58
61
65
68
72
75
78
82
85
88
92
95
99
102
105
109
112
116
119
123
126
129
133
136
140
143
146
150
153
157
160
163
167
170
173
177
180
184
187
191
194
197
201
204
207
211
0
1
5
8
12
15
19
22
25
29
32
35
39
42
46
49
53
56
59
63
66
70
73
77
80
83
87
90
93
97
100
103
107
110
114
117
121
124
127
131
134
138
141
144
148
151
155
158
161
165
168
171
175
178
182
185
189
192
195
199
202
206
209
212
0
3
6
10
13
17
20
23
27
30
34
37
40
44
47
51
54
57
61
64
68
71
75
78
81
85
88
91
95
98
101
105
108
112
115
119
122
125
129
132
136
139
143
146
149
153
156
159
163
166
169
173
176
180
183
187
190
193
197
200
204
207
210
214
1
4
8
11
15
18
21
25
28
32
35
38
42
45
49
52
55
59
62
66
69
73
76
79
83
86
89
93
96
100
103
106
110
113
117
120
123
127
130
134
137
141
144
147
151
154
157
161
164
167
171
174
178
181
185
188
191
195
198
202
205
209
212
215
2
6
9
13
16
19
23
26
30
33
37
40
43
47
50
53
57
60
64
67
71
74
77
81
84
87
91
94
98
101
104
108
111
115
118
121
125
128
132
135
139
142
145
149
152
156
159
162
166
169
172
176
179
183
186
189
193
196
200
203
207
210
213
217
4
7
11
14
17
21
24
28
31
35
38
41
45
48
51
55
58
62
65
69
72
75
79
82
85
89
92
96
99
102
106
109
113
116
119
123
126
130
133
137
140
143
147
150
154
157
160
164
167
170
174
177
181
184
187
191
194
198
201
205
208
211
215
218
5
9
12
15
19
22
26
29
33
36
39
43
46
49
53
56
60
63
67
70
73
77
80
83
87
90
94
97
101
104
107
111
114
117
121
124
128
131
135
138
141
145
148
152
155
159
162
165
168
172
175
179
182
185
189
192
196
199
203
206
209
213
216
220
7
10
13
17
20
24
27
31
34
37
41
44
48
51
54
58
61
65
68
71
75
78
82
85
88
92
95
99
102
105
109
112
115
119
122
126
129
133
136
139
143
146
150
153
157
160
163
167
170
173
177
180
183
187
190
194
197
201
204
207
211
214
218
221
8
11
15
18
22
25
29
32
35
39
42
46
49
52
56
59
63
66
69
73
76
80
83
86
90
93
97
100
103
107
110
114
117
120
124
127
131
134
137
141
144
148
151
155
158
161
165
168
171
175
178
181
185
188
192
195
199
202
205
209
212
216
219
223
9
13
16
20
23
27
30
33
37
40
44
47
51
54
57
61
64
67
71
74
78
81
84
88
91
95
98
101
105
108
112
115
118
122
125
129
132
135
139
142
146
149
153
156
159
163
166
169
173
176
180
183
186
190
193
197
200
203
207
210
214
217
221
224
11
14
18
21
25
28
31
35
38
42
45
49
52
55
59
62
65
69
72
76
79
83
86
89
93
96
99
103
106
110
113
117
120
123
127
130
133
137
140
144
147
151
154
157
161
164
167
171
174
178
181
184
188
191
195
198
201
205
208
212
215
219
222
225
12
16
19
23
26
29
33
36
40
43
47
50
53
57
60
64
67
70
74
77
81
84
87
91
94
97
101
104
108
111
115
118
121
125
128
131
135
138
142
145
149
152
155
159
162
165
169
172
176
179
183
186
189
193
196
199
203
206
210
213
217
220
223
227
14
17
21
24
27
31
34
38
41
45
48
51
55
58
62
65
68
72
75
79
82
85
89
92
95
99
102
106
109
113
116
119
123
126
130
133
136
140
143
147
150
153
157
160
164
167
170
174
177
181
184
187
191
194
197
201
204
208
211
215
218
221
225
228
15
19
22
25
29
32
36
39
43
46
49
53
56
60
63
67
70
73
77
80
83
87
90
93
97
100
104
107
111
114
117
121
124
128
131
134
138
141
145
148
151
155
158
162
165
168
172
175
179
182
185
189
192
196
199
202
206
209
213
216
219
223
226
230
17
20
23
27
30
34
37
41
44
47
51
54
58
61
65
68
71
75
78
81
85
88
91
95
98
102
105
109
112
115
119
122
126
129
133
136
139
143
146
149
153
156
160
163
167
170
173
177
180
183
187
190
194
197
200
204
207
211
214
217
221
224
228
231
18
22
25
28
32
35
39
42
45
49
52
56
59
63
66
69
73
76
80
83
86
89
93
96
100
103
107
110
113
117
120
124
127
131
134
137
141
144
147
151
154
158
161
165
168
171
175
178
181
185
188
192
195
198
202
205
209
212
215
219
222
226
229
233
20
23
26
30
33
37
40
43
47
50
54
57
61
64
67
71
74
78
81
84
88
91
94
98
101
105
108
111
115
118
122
125
129
132
135
139
142
146
149
152
156
159
163
166
169
173
176
179
183
186
190
193
197
200
203
207
210
213
217
220
224
227
231
234
21
25
28
31
35
38
41
45
48
52
55
59
62
65
69
72
76
79
83
86
89
92
96
99
103
106
109
113
116
120
123
127
130
133
137
140
144
147
150
154
157
161
164
167
171
174
177
181
184
188
191
195
198
201
205
208
211
215
218
222
225
229
232
235
23
26
29
33
36
39
43
46
50
53
57
60
63
67
70
74
77
81
84
87
91
94
97
101
104
107
111
114
118
121
125
128
131
135
138
142
145
148
152
155
159
162
165
169
172
175
179
182
186
189
193
196
199
203
206
210
213
216
220
223
227
230
233
237
24
27
31
34
38
41
44
48
51
55
58
61
65
68
72
75
79
82
85
89
92
95
99
102
105
109
112
116
119
123
126
129
133
136
140
143
147
150
153
157
160
163
167
170
173
177
180
184
187
191
194
197
201
204
208
211
214
218
221
225
228
231
235
238
25
29
32
36
39
42
46
49
53
56
59
63
66
70
73
77
80
83
87
90
93
97
100
104
107
110
114
117
121
124
127
131
134
138
141
145
148
151
155
158
161
165
168
171
175
178
182
185
189
192
195
199
202
206
209
213
216
219
223
226
229
233
236
240
27
30
34
37
41
44
47
51
54
57
61
64
68
71
75
78
81
85
88
91
95
98
102
105
108
112
115
119
122
125
129
132
136
139
143
146
149
153
156
160
163
166
170
173
176
180
183
187
190
193
197
200
204
207
211
214
217
221
224
227
231
234
238
241
28
32
35
39
42
45
49
52
55
59
62
66
69
73
76
79
83
86
89
93
96
100
103
107
110
113
117
120
123
127
130
134
137
141
144
147
151
154
158
161
164
168
171
174
178
181
185
188
191
195
198
202
205
209
212
215
219
222
226
229
232
236
239
243
30
33
37
40
43
47
50
54
57
60
64
67
71
74
77
81
84
87
91
94
98
101
105
108
111
115
118
121
125
128
132
135
139
142
145
149
152
156
159
163
166
169
172
176
179
183
186
189
193
196
200
203
207
210
213
217
220
224
227
230
234
237
241
244
31
35
38
41
45
48
52
55
58
62
65
69
72
75
79
82
85
89
92
96
99
103
106
109
113
116
119
123
126
130
133
137
140
143
147
150
154
157
161
164
167
171
174
177
181
184
187
191
194
198
201
205
208
211
215
218
222
225
229
232
235
239
242
245
33
36
39
43
46
50
53
56
60
63
67
70
73
77
80
83
87
90
94
97
101
104
107
111
114
118
121
124
128
131
135
138
141
145
148
152
155
159
162
165
169
172
175
179
182
185
189
192
196
199
203
206
209
213
216
220
223
227
230
233
237
240
243
247
34
37
41
44
48
51
55
58
61
65
68
71
75
78
82
85
88
92
95
99
102
105
109
112
116
119
122
126
129
133
136
139
143
146
150
153
157
160
163
167
170
173
177
180
184
187
190
194
197
201
204
207
211
214
218
221
225
228
231
235
238
242
245
248
35
39
42
46
49
53
56
59
63
66
69
73
76
80
83
86
90
93
97
100
103
107
110
114
117
121
124
127
131
134
137
141
144
148
151
155
158
161
165
168
171
175
178
182
185
188
192
195
199
202
205
209
212
216
219
223
226
229
233
236
240
243
246
250
37
40
44
47
51
54
57
61
64
68
71
74
78
81
85
88
91
95
98
101
105
108
112
115
119
122
125
129
132
135
139
142
146
149
153
156
159
163
166
169
173
176
180
183
187
190
193
197
200
203
207
210
214
217
221
224
227
231
234
238
241
244
248
251
38
42
45
49
52
55
59
62
66
69
72
76
79
83
86
89
93
96
99
103
106
110
113
117
120
123
127
130
134
137
140
144
147
151
154
157
161
164
167
171
174
178
181
185
188
191
195
198
201
205
208
212
215
219
222
225
229
232
236
239
243
246
249
253
40
43
47
50
53
57
60
64
67
71
74
77
81
84
87
91
94
97
101
104
108
111
115
118
121
125
128
132
135
138
142
145
149
152
155
159
162
165
169
172
176
179
183
186
189
193
196
200
203
206
210
213
217
220
223
227
230
234
237
241
244
247
251
254
41
45
48
51
55
58
62
65
69
72
75
79
82
85
89
92
95
99
102
106
109
113
116
119
123
126
130
133
137
140
143
147
150
153
157
160
164
167
170
174
177
181
184
187
191
194
198
201
204
208
211
215
218
221
225
228
232
235
239
242
245
249
252
254
43
46
49
53
56
60
63
67
70
73
77
80
83
87
90
93
97
100
104
107
111
114
117
121
124
128
131
135
138
141
145
148
151
155
158
162
165
168
172
175
179
182
185
189
192
196
199
203
206
209
213
216
219
223
226
230
233
237
240
243
247
250
253
254
44
47
51
54
58
61
65
68
71
75
78
81
85
88
92
95
98
102
105
109
112
115
119
122
126
129
133
136
139
143
146
150
153
156
160
163
167
170
173
177
180
183
187
190
194
197
201
204
207
211
214
217
221
224
228
231
235
238
241
245
248
251
254
254
45
49
52
56
59
63
66
69
73
76
80
83
86
90
93
96
100
103
107
110
113
117
120
124
127
131
134
137
141
144
148
151
154
158
161
165
168
171
175
178
181
185
188
192
195
199
202
205
209
212
215
219
222
226
229
233
236
239
243
246
249
253
254
254
47
50
54
57
61
64
67
71
74
78
81
84
88
91
95
98
101
105
108
111
115
118
122
125
129
132
135
139
142
146
149
152
156
159
163
166
169
173
176
179
183
186
190
193
197
200
203
207
210
214
217
220
224
227
231
234
237
241
244
248
251
254
254
254
48
52
55
59
62
65
69
72
76
79
83
86
89
93
96
99
103
106
109
113
116
120
123
127
130
133
137
140
144
147
151
154
157
161
164
167
171
174
177
181
184
188
191
195
198
201
205
208
212
215
218
222
225
229
232
235
239
242
246
249
252
254
254
254
50
53
57
60
63
67
70
74
77
81
84
87
91
94
97
101
104
108
111
114
118
121
125
128
131
135
138
142
145
149
152
155
159
162
165
169
172
175
179
182
186
189
193
196
199
203
206
210
213
217
220
223
227
230
233
237
240
244
247
251
254
254
254
254
51
55
58
61
65
68
72
75
79
82
85
89
92
95
99
102
106
109
112
116
119
123
126
129
133
136
140
143
147
150
153
157
160
164
167
170
174
177
180
184
187
191
194
197
201
204
208
211
215
218
221
225
228
231
235
238
242
245
249
252
254
254
254
254
53
56
59
63
66
70
73
77
80
83
87
90
93
97
100
104
107
111
114
117
121
124
127
131
134
138
141
145
148
151
155
158
162
165
168
172
175
178
182
185
189
192
195
199
202
206
209
213
216
219
223
226
230
233
236
240
243
247
250
253
254
254
254
254
54
58
61
64
68
71
75
78
81
85
88
91
95
98
102
105
109
112
115
119
122
125
129
132
136
139
143
146
149
153
156
160
163
166
170
173
177
180
183
187
190
193
197
200
204
207
211
214
217
221
224
228
231
234
238
241
245
248
251
254
254
254
254
254
56
59
62
66
69
73
76
79
83
86
89
93
96
100
103
107
110
113
117
120
124
127
130
134
137
141
144
147
151
154
158
161
165
168
171
175
178
181
185
188
191
195
198
202
205
209
212
215
219
222
226
229
233
236
239
243
246
249
253
254
254
254
254
254
57
61
64
67
71
74
77
81
84
87
91
94
98
101
105
108
111
115
118
122
125
128
132
135
139
142
145
149
152
156
159
163
166
169
173
176
179
183
186
189
193
196
200
203
207
210
213
217
220
224
227
231
234
237
241
244
247
251
254
254
254
254
254
254
59
62
65
69
72
75
79
82
85
89
92
96
99
103
106
109
113
116
120
123
126
130
133
137
140
143
147
150
154
157
161
164
167
171
174
177
181
184
188
191
194
198
201
205
208
211
215
218
222
225
229
232
235
239
242
246
249
252
254
254
254
254
254
254
60
63
67
70
73
77
80
83
87
90
94
97
101
104
107
111
114
118
121
125
128
131
135
138
141
145
148
152
155
159
162
165
169
172
175
179
182
186
189
192
196
199
203
206
209
213
216
220
223
227
230
233
237
240
244
247
250
253
254
254
254
254
254
254
61
65
68
72
75
78
82
85
88
92
95
99
102
105
109
112
116
119
123
126
129
133
136
139
143
146
150
153
157
160
163
167
170
173
177
180
184
187
191
194
197
201
204
207
211
214
218
221
225
228
231
235
238
242
245
249
252
254
254
254
254
254
254
254
63
66
70
73
76
80
83
86
90
93
97
100
103
107
110
114
117
121
124
127
131
134
138
141
144
148
151
155
158
161
165
168
171
175
178
182
185
189
192
195
199
202
205
209
212
216
219
223
226
229
233
236
240
243
247
250
253
254
254
254
254
254
254
254
64
68
71
75
78
81
85
88
91
95
98
101
105
108
112
115
119
122
125
129
132
136
139
142
146
149
153
156
159
163
166
169
173
176
180
183
187
190
193
197
200
204
207
210
214
217
221
224
227
231
234
238
241
245
248
251
254
254
254
254
254
254
254
254
66
69
73
76
79
83
86
89
93
96
99
103
106
110
113
117
120
123
127
130
134
137
141
144
147
151
154
157
161
164
167
171
174
178
181
185
188
191
195
198
202
205
208
212
215
219
222
225
229
232
236
239
243
246
249
253
254
254
254
254
254
254
254
254
67
71
74
77
81
84
87
91
94
97
101
104
108
111
115
118
121
125
128
132
135
139
142
145
149
152
155
159
162
166
169
172
176
179
183
186
189
193
196
200
203
207
210
213
217
220
223
227
230
234
237
241
244
247
251
254
254
254
254
254
254
254
254
254
69
72
75
79
82
85
89
92
96
99
102
106
109
113
116
119
123
126
130
133
137
140
143
147
150
154
157
160
164
167
170
174
177
181
184
187
191
194
198
201
205
208
211
215
218
221
225
228
232
235
239
242
245
249
252
254
254
254
254
254
254
254
254
254
70
73
77
80
83
87
90
94
97
100
104
107
111
114
117
121
124
128
131
135
138
141
145
148
152
155
158
162
165
168
172
175
179
182
185
189
192
196
199
203
206
209
213
216
220
223
226
230
233
237
240
243
247
250
253
254
254
254
254
254
254
254
254
254
71
75
78
82
85
88
92
95
99
102
105
109
112
115
119
122
126
129
133
136
139
143
146
150
153
157
160
163
167
170
173
177
180
183
187
190
194
197
201
204
207
211
214
218
221
224
228
231
235
238
241
245
248
251
254
254
254
254
254
254
254
254
254
254
