<?xml version="1.0" encoding="UTF-8" standalone="no"?>
<!DOCTYPE svg PUBLIC "-//W3C//DTD SVG 1.0//EN"
"http://www.w3.org/TR/2001/REC-SVG-20010904/DTD/svg10.dtd">
<!-- Created with Inkscape (http://www.inkscape.org/) -->
<svg
   id="svg1"
   sodipodi:version="0.32"
   inkscape:version="0.39"
   xmlns="http://www.w3.org/2000/svg"
   xmlns:sodipodi="http://sodipodi.sourceforge.net/DTD/sodipodi-0.dtd"
   xmlns:inkscape="http://www.inkscape.org/namespaces/inkscape"
   xmlns:xlink="http://www.w3.org/1999/xlink"
   xmlns:rdf="http://www.w3.org/1999/02/22-rdf-syntax-ns#"
   xmlns:cc="http://web.resource.org/cc/"
   xmlns:dc="http://purl.org/dc/elements/1.1/"
   width="210mm"
   height="297mm"
   sodipodi:docbase="/home/felix/diss/simulations/examples"
   sodipodi:docname="star.svg">
  <defs
     id="defs3" />
  <sodipodi:namedview
     id="base"
     pagecolor="#ffffff"
     bordercolor="#666666"
     borderopacity="1.0"
     inkscape:pageopacity="0.0"
     inkscape:pageshadow="2"
     inkscape:zoom="2.2576235"
     inkscape:cx="350.35540"
     inkscape:cy="556.18092"
     inkscape:window-width="1248"
     inkscape:window-height="1067"
     showgrid="true"
     inkscape:grid-points="true"
     showguides="true"
     inkscape:guide-bbox="true"
     inkscape:window-x="186"
     inkscape:window-y="14">
    <sodipodi:guide
       orientation="vertical"
       position="127.56777"
       id="guide1565" />
    <sodipodi:guide
       orientation="vertical"
       position="184.26456"
       id="guide1566" />
    <sodipodi:guide
       orientation="vertical"
       position="240.96135"
       id="guide1567" />
    <sodipodi:guide
       orientation="vertical"
       position="297.65814"
       id="guide1568" />
    <sodipodi:guide
       orientation="vertical"
       position="354.35493"
       id="guide1569" />
    <sodipodi:guide
       orientation="vertical"
       position="411.05172"
       id="guide1570" />
    <sodipodi:guide
       orientation="horizontal"
       position="709.15280"
       id="guide1571" />
    <sodipodi:guide
       orientation="horizontal"
       position="652.45601"
       id="guide1572" />
    <sodipodi:guide
       orientation="horizontal"
       position="595.75922"
       id="guide1573" />
    <sodipodi:guide
       orientation="horizontal"
       position="539.06243"
       id="guide1574" />
    <sodipodi:guide
       orientation="horizontal"
       position="482.36564"
       id="guide1575" />
    <sodipodi:guide
       orientation="horizontal"
       position="425.66886"
       id="guide1576" />
  </sodipodi:namedview>
  <metadata
     id="metadata4">
    <rdf:RDF
       id="RDF5">
      <cc:Work
         rdf:about=""
         id="Work6">
        <dc:format
           id="format7">image/svg+xml</dc:format>
        <dc:type
           id="type9"
           rdf:resource="http://purl.org/dc/dcmitype/StillImage" />
      </cc:Work>
    </rdf:RDF>
  </metadata>
  <rect
     style="fill:#ffffff;fill-opacity:1.0000000;fill-rule:evenodd;stroke:#ffffff;stroke-width:1.0000000pt;stroke-linecap:butt;stroke-linejoin:miter;stroke-opacity:1.0000000;"
     id="rect1609"
     width="354.31982"
     height="354.94495"
     x="159.45972"
     y="165.92119" />
  <path
     sodipodi:type="star"
     style="fill:#000000;fill-opacity:1.0000000;fill-rule:evenodd;stroke:#000000;stroke-width:1.0000000pt;stroke-linecap:butt;stroke-linejoin:miter;stroke-opacity:1.0000000;"
     id="path1608"
     sodipodi:sides="32"
     sodipodi:cx="265.74802"
     sodipodi:cy="263.36880"
     sodipodi:r1="106.92646"
     sodipodi:r2="17.108234"
     sodipodi:arg1="0.80113278"
     sodipodi:arg2="0.89930755"
     inkscape:flatsided="false"
     inkscape:rounded="0.010000000"
     d="M 340.15746,340.15749 C 339.51173,340.78321 277.09589,276.20336 276.39194,276.76278 C 275.68799,277.32219 324.50237,352.71086 323.74698,353.19858 C 322.99158,353.68630 274.37395,278.17061 273.57439,278.58194 C 272.77483,278.99328 305.94365,362.45658 305.10762,362.78756 C 304.27159,363.11854 271.32052,279.56903 270.45607,279.81648 C 269.59163,280.06392 285.84024,368.39442 284.95570,368.55594 C 284.07116,368.71746 268.05293,280.34489 267.15682,280.41894 C 266.26072,280.49298 264.96469,370.29618 264.06564,370.28203 C 263.16659,370.26788 264.69677,280.46837 263.80344,280.36617 C 262.91010,280.26396 244.11925,368.08878 243.24023,367.89951 C 242.36121,367.71023 261.38101,279.93472 260.52478,279.66020 C 259.66855,279.38568 224.10498,361.85705 223.27978,361.49993 C 222.45458,361.14280 258.23308,278.76445 257.44685,278.32816 C 256.66063,277.89188 205.69104,351.84047 204.95137,351.32922 C 204.21169,350.81797 255.37393,277.00253 254.68793,276.42125 C 254.00193,275.83996 189.58505,338.42398 188.95933,337.77825 C 188.33361,337.13252 252.91346,274.71668 252.35404,274.01273 C 251.79463,273.30878 176.40596,322.12316 175.91824,321.36776 C 175.43052,320.61237 250.94621,271.99474 250.53488,271.19518 C 250.12354,270.39562 166.66024,303.56444 166.32926,302.72841 C 165.99828,301.89238 249.54779,268.94130 249.30034,268.07686 C 249.05290,267.21241 160.72240,283.46103 160.56088,282.57649 C 160.39936,281.69195 248.77193,265.67372 248.69789,264.77761 C 248.62384,263.88150 158.82064,262.58548 158.83479,261.68643 C 158.84894,260.78738 248.64845,262.31756 248.75065,261.42423 C 248.85286,260.53089 161.02804,241.74003 161.21732,240.86102 C 161.40659,239.98200 249.18210,259.00180 249.45662,258.14557 C 249.73114,257.28934 167.25977,221.72577 167.61689,220.90057 C 167.97402,220.07537 250.35237,255.85386 250.78866,255.06764 C 251.22495,254.28142 177.27635,203.31183 177.78760,202.57215 C 178.29885,201.83248 252.11429,252.99472 252.69558,252.30872 C 253.27686,251.62272 190.69284,187.20584 191.33857,186.58012 C 191.98430,185.95440 254.40014,250.53425 255.10409,249.97483 C 255.80804,249.41542 206.99366,174.02675 207.74906,173.53903 C 208.50445,173.05131 257.12208,248.56700 257.92164,248.15567 C 258.72121,247.74433 225.55238,164.28103 226.38841,163.95005 C 227.22444,163.61907 260.17552,247.16858 261.03996,246.92113 C 261.90441,246.67369 245.65580,158.34319 246.54033,158.18167 C 247.42487,158.02015 263.44310,246.39272 264.33921,246.31867 C 265.23532,246.24463 266.53134,156.44143 267.43039,156.45558 C 268.32944,156.46973 266.79926,246.26924 267.69259,246.37144 C 268.58593,246.47364 287.37679,158.64883 288.25580,158.83810 C 289.13482,159.02738 270.11502,246.80289 270.97125,247.07741 C 271.82748,247.35193 307.39105,164.88056 308.21625,165.23768 C 309.04145,165.59481 273.26296,247.97316 274.04918,248.40945 C 274.83540,248.84573 325.80499,174.89714 326.54467,175.40839 C 327.28434,175.91964 276.12210,249.73508 276.80810,250.31636 C 277.49410,250.89765 341.91098,188.31363 342.53670,188.95936 C 343.16242,189.60509 278.58257,252.02093 279.14199,252.72488 C 279.70141,253.42883 355.09007,204.61445 355.57779,205.36985 C 356.06552,206.12524 280.54982,254.74287 280.96116,255.54243 C 281.37249,256.34199 364.83579,223.17317 365.16677,224.00920 C 365.49776,224.84523 281.94825,257.79631 282.19569,258.66075 C 282.44313,259.52520 370.77363,243.27658 370.93515,244.16112 C 371.09667,245.04566 282.72410,261.06389 282.79815,261.96000 C 282.87219,262.85611 372.67539,264.15213 372.66124,265.05118 C 372.64709,265.95023 282.84758,264.42005 282.74538,265.31338 C 282.64318,266.20672 370.46799,284.99758 370.27872,285.87659 C 370.08945,286.75561 282.31393,267.73581 282.03941,268.59204 C 281.76489,269.44827 364.23626,305.01184 363.87914,305.83704 C 363.52202,306.66224 281.14366,270.88375 280.70737,271.66997 C 280.27109,272.45619 354.21968,323.42578 353.70843,324.16546 C 353.19719,324.90513 279.38175,273.74289 278.80046,274.42889 C 278.21917,275.11489 340.80319,339.53177 340.15746,340.15749 z "
     transform="matrix(1.648338,0.000000,0.000000,1.637218,-100.0644,-86.97972)" />
</svg>
